<mxfile host="Electron" modified="2024-05-04T17:12:36.987Z" agent="Mozilla/5.0 (Windows NT 10.0; Win64; x64) AppleWebKit/537.36 (KHTML, like Gecko) draw.io/23.1.5 Chrome/120.0.6099.109 Electron/28.1.0 Safari/537.36" etag="3Wt1kNKEoNDqfLpAplt7" version="23.1.5" type="device">
  <diagram name="Strona-1" id="N-g6R4FaqpWk_qaJ9Zau">
    <mxGraphModel dx="819" dy="547" grid="1" gridSize="10" guides="1" tooltips="1" connect="1" arrows="1" fold="1" page="1" pageScale="1" pageWidth="413" pageHeight="583" math="0" shadow="0">
      <root>
        <mxCell id="0" />
        <mxCell id="1" parent="0" />
        <mxCell id="YTHO2lLW2D-y7u-0HVRx-38" value="wejście" style="endArrow=classic;html=1;rounded=0;entryX=0;entryY=0.5;entryDx=0;entryDy=0;" edge="1" parent="1" target="YTHO2lLW2D-y7u-0HVRx-48">
          <mxGeometry x="-0.1429" y="15" width="50" height="50" relative="1" as="geometry">
            <mxPoint x="10" y="45" as="sourcePoint" />
            <mxPoint x="80" y="44.999999999999886" as="targetPoint" />
            <mxPoint as="offset" />
          </mxGeometry>
        </mxCell>
        <mxCell id="YTHO2lLW2D-y7u-0HVRx-97" style="edgeStyle=orthogonalEdgeStyle;rounded=0;orthogonalLoop=1;jettySize=auto;html=1;exitX=0.25;exitY=1;exitDx=0;exitDy=0;strokeWidth=3;" edge="1" parent="1" source="YTHO2lLW2D-y7u-0HVRx-39">
          <mxGeometry relative="1" as="geometry">
            <mxPoint x="330" y="290" as="targetPoint" />
            <Array as="points">
              <mxPoint x="205" y="270" />
              <mxPoint x="330" y="270" />
            </Array>
          </mxGeometry>
        </mxCell>
        <mxCell id="YTHO2lLW2D-y7u-0HVRx-99" value="p" style="edgeStyle=orthogonalEdgeStyle;rounded=0;orthogonalLoop=1;jettySize=auto;html=1;exitX=0.75;exitY=1;exitDx=0;exitDy=0;fillColor=#1ba1e2;strokeColor=#006EAF;" edge="1" parent="1" source="YTHO2lLW2D-y7u-0HVRx-39">
          <mxGeometry x="0.3366" y="5" relative="1" as="geometry">
            <mxPoint x="235" y="220" as="targetPoint" />
            <mxPoint as="offset" />
          </mxGeometry>
        </mxCell>
        <mxCell id="YTHO2lLW2D-y7u-0HVRx-100" style="edgeStyle=orthogonalEdgeStyle;rounded=0;orthogonalLoop=1;jettySize=auto;html=1;exitX=0.25;exitY=1;exitDx=0;exitDy=0;entryX=0;entryY=0.5;entryDx=0;entryDy=0;strokeWidth=3;" edge="1" parent="1" source="YTHO2lLW2D-y7u-0HVRx-39" target="YTHO2lLW2D-y7u-0HVRx-71">
          <mxGeometry relative="1" as="geometry" />
        </mxCell>
        <mxCell id="YTHO2lLW2D-y7u-0HVRx-104" style="edgeStyle=orthogonalEdgeStyle;rounded=0;orthogonalLoop=1;jettySize=auto;html=1;exitX=0.25;exitY=1;exitDx=0;exitDy=0;strokeWidth=3;" edge="1" parent="1">
          <mxGeometry relative="1" as="geometry">
            <mxPoint x="207" y="180" as="sourcePoint" />
            <mxPoint x="175" y="180" as="targetPoint" />
          </mxGeometry>
        </mxCell>
        <mxCell id="YTHO2lLW2D-y7u-0HVRx-39" value="x&lt;sub&gt;act&lt;/sub&gt;&amp;nbsp;= val&lt;span style=&quot;font-size: 10px;&quot;&gt;&lt;sub&gt;act&lt;/sub&gt;&lt;/span&gt;&amp;nbsp;&lt;br&gt;&amp;amp; 0xFE&lt;br&gt;p = val&lt;sub&gt;in&lt;/sub&gt;&amp;nbsp;&lt;br&gt;&amp;amp; 0x1" style="rounded=0;whiteSpace=wrap;html=1;" vertex="1" parent="1">
          <mxGeometry x="190" y="80" width="60" height="80" as="geometry" />
        </mxCell>
        <mxCell id="YTHO2lLW2D-y7u-0HVRx-49" style="edgeStyle=orthogonalEdgeStyle;rounded=0;orthogonalLoop=1;jettySize=auto;html=1;exitX=1;exitY=0.5;exitDx=0;exitDy=0;dashed=1;dashPattern=8 8;strokeWidth=3;" edge="1" parent="1" source="YTHO2lLW2D-y7u-0HVRx-48">
          <mxGeometry relative="1" as="geometry">
            <mxPoint x="200" y="44.95238095238096" as="targetPoint" />
            <mxPoint x="170" y="44.99999999999994" as="sourcePoint" />
          </mxGeometry>
        </mxCell>
        <mxCell id="YTHO2lLW2D-y7u-0HVRx-62" style="edgeStyle=orthogonalEdgeStyle;rounded=0;orthogonalLoop=1;jettySize=auto;html=1;exitX=0.5;exitY=1;exitDx=0;exitDy=0;entryX=0.5;entryY=0;entryDx=0;entryDy=0;strokeWidth=3;" edge="1" parent="1" source="YTHO2lLW2D-y7u-0HVRx-48" target="YTHO2lLW2D-y7u-0HVRx-58">
          <mxGeometry relative="1" as="geometry" />
        </mxCell>
        <mxCell id="YTHO2lLW2D-y7u-0HVRx-48" value="val&lt;sub&gt;next&lt;/sub&gt;" style="rounded=0;whiteSpace=wrap;html=1;" vertex="1" parent="1">
          <mxGeometry x="57" y="30" width="60" height="30" as="geometry" />
        </mxCell>
        <mxCell id="YTHO2lLW2D-y7u-0HVRx-54" style="edgeStyle=orthogonalEdgeStyle;rounded=0;orthogonalLoop=1;jettySize=auto;html=1;exitX=1;exitY=0.5;exitDx=0;exitDy=0;entryX=0;entryY=0.5;entryDx=0;entryDy=0;dashed=1;dashPattern=8 8;strokeWidth=3;" edge="1" parent="1" source="YTHO2lLW2D-y7u-0HVRx-51" target="YTHO2lLW2D-y7u-0HVRx-52">
          <mxGeometry relative="1" as="geometry" />
        </mxCell>
        <mxCell id="YTHO2lLW2D-y7u-0HVRx-61" style="edgeStyle=orthogonalEdgeStyle;rounded=0;orthogonalLoop=1;jettySize=auto;html=1;exitX=0.5;exitY=1;exitDx=0;exitDy=0;entryX=0.5;entryY=0;entryDx=0;entryDy=0;strokeWidth=3;" edge="1" parent="1" source="YTHO2lLW2D-y7u-0HVRx-51" target="YTHO2lLW2D-y7u-0HVRx-39">
          <mxGeometry relative="1" as="geometry" />
        </mxCell>
        <mxCell id="YTHO2lLW2D-y7u-0HVRx-51" value="val&lt;span style=&quot;font-size: 10px;&quot;&gt;&lt;sub&gt;act&lt;/sub&gt;&lt;/span&gt;" style="rounded=0;whiteSpace=wrap;html=1;" vertex="1" parent="1">
          <mxGeometry x="190" y="30" width="60" height="30" as="geometry" />
        </mxCell>
        <mxCell id="YTHO2lLW2D-y7u-0HVRx-60" style="edgeStyle=orthogonalEdgeStyle;rounded=0;orthogonalLoop=1;jettySize=auto;html=1;exitX=0.5;exitY=1;exitDx=0;exitDy=0;entryX=0.5;entryY=0;entryDx=0;entryDy=0;strokeWidth=3;" edge="1" parent="1" source="YTHO2lLW2D-y7u-0HVRx-52" target="YTHO2lLW2D-y7u-0HVRx-59">
          <mxGeometry relative="1" as="geometry" />
        </mxCell>
        <mxCell id="YTHO2lLW2D-y7u-0HVRx-52" value="val&lt;span style=&quot;font-size: 8.33333px;&quot;&gt;&lt;sub&gt;prev&lt;/sub&gt;&lt;/span&gt;" style="rounded=0;whiteSpace=wrap;html=1;" vertex="1" parent="1">
          <mxGeometry x="320" y="30" width="70" height="30" as="geometry" />
        </mxCell>
        <mxCell id="YTHO2lLW2D-y7u-0HVRx-56" value="Dane przejdą przez to połączenie w następnej iteracji" style="text;html=1;align=center;verticalAlign=middle;whiteSpace=wrap;rounded=0;" vertex="1" parent="1">
          <mxGeometry x="235" y="540" width="170" height="40" as="geometry" />
        </mxCell>
        <mxCell id="YTHO2lLW2D-y7u-0HVRx-57" style="edgeStyle=orthogonalEdgeStyle;rounded=0;orthogonalLoop=1;jettySize=auto;html=1;dashed=1;dashPattern=8 8;" edge="1" parent="1">
          <mxGeometry relative="1" as="geometry">
            <mxPoint x="230" y="559.83" as="targetPoint" />
            <mxPoint x="183" y="559.64" as="sourcePoint" />
          </mxGeometry>
        </mxCell>
        <mxCell id="YTHO2lLW2D-y7u-0HVRx-94" style="edgeStyle=orthogonalEdgeStyle;rounded=0;orthogonalLoop=1;jettySize=auto;html=1;exitX=0.5;exitY=1;exitDx=0;exitDy=0;entryX=0.335;entryY=-0.024;entryDx=0;entryDy=0;entryPerimeter=0;strokeWidth=3;" edge="1" parent="1" source="YTHO2lLW2D-y7u-0HVRx-58" target="YTHO2lLW2D-y7u-0HVRx-113">
          <mxGeometry relative="1" as="geometry">
            <mxPoint x="85" y="220" as="targetPoint" />
          </mxGeometry>
        </mxCell>
        <mxCell id="YTHO2lLW2D-y7u-0HVRx-95" style="edgeStyle=orthogonalEdgeStyle;rounded=0;orthogonalLoop=1;jettySize=auto;html=1;exitX=0.5;exitY=1;exitDx=0;exitDy=0;entryX=0;entryY=0.5;entryDx=0;entryDy=0;strokeWidth=3;" edge="1" parent="1" source="YTHO2lLW2D-y7u-0HVRx-58" target="YTHO2lLW2D-y7u-0HVRx-68">
          <mxGeometry relative="1" as="geometry" />
        </mxCell>
        <mxCell id="YTHO2lLW2D-y7u-0HVRx-58" value="x&lt;sub&gt;next&lt;/sub&gt; = val&lt;sub&gt;&lt;span style=&quot;font-size: 8.33333px;&quot;&gt;next&lt;/span&gt;&amp;nbsp;&lt;/sub&gt;&lt;br&gt;&amp;amp; 0xFE" style="rounded=0;whiteSpace=wrap;html=1;" vertex="1" parent="1">
          <mxGeometry x="52" y="80" width="65" height="50" as="geometry" />
        </mxCell>
        <mxCell id="YTHO2lLW2D-y7u-0HVRx-102" style="edgeStyle=orthogonalEdgeStyle;rounded=0;orthogonalLoop=1;jettySize=auto;html=1;exitX=0.5;exitY=1;exitDx=0;exitDy=0;entryX=1;entryY=0.5;entryDx=0;entryDy=0;strokeWidth=3;" edge="1" parent="1" source="YTHO2lLW2D-y7u-0HVRx-59" target="YTHO2lLW2D-y7u-0HVRx-71">
          <mxGeometry relative="1" as="geometry" />
        </mxCell>
        <mxCell id="YTHO2lLW2D-y7u-0HVRx-103" style="edgeStyle=orthogonalEdgeStyle;rounded=0;orthogonalLoop=1;jettySize=auto;html=1;exitX=0.5;exitY=1;exitDx=0;exitDy=0;strokeWidth=3;" edge="1" parent="1" source="YTHO2lLW2D-y7u-0HVRx-59">
          <mxGeometry relative="1" as="geometry">
            <mxPoint x="355" y="290" as="targetPoint" />
          </mxGeometry>
        </mxCell>
        <mxCell id="YTHO2lLW2D-y7u-0HVRx-59" value="x&lt;sub&gt;prev&lt;/sub&gt; = val&lt;span style=&quot;font-size: 10px;&quot;&gt;&lt;sub&gt;prev&lt;/sub&gt;&lt;/span&gt;&amp;nbsp;&lt;br&gt;&amp;amp; 0xFE" style="rounded=0;whiteSpace=wrap;html=1;" vertex="1" parent="1">
          <mxGeometry x="327.5" y="80" width="55" height="50" as="geometry" />
        </mxCell>
        <mxCell id="YTHO2lLW2D-y7u-0HVRx-107" style="edgeStyle=orthogonalEdgeStyle;rounded=0;orthogonalLoop=1;jettySize=auto;html=1;exitX=0.5;exitY=1;exitDx=0;exitDy=0;" edge="1" parent="1" source="YTHO2lLW2D-y7u-0HVRx-71">
          <mxGeometry relative="1" as="geometry">
            <mxPoint x="290" y="290" as="targetPoint" />
          </mxGeometry>
        </mxCell>
        <mxCell id="YTHO2lLW2D-y7u-0HVRx-114" style="edgeStyle=orthogonalEdgeStyle;rounded=0;orthogonalLoop=1;jettySize=auto;html=1;exitX=0.5;exitY=1;exitDx=0;exitDy=0;entryX=0.562;entryY=-0.012;entryDx=0;entryDy=0;entryPerimeter=0;" edge="1" parent="1" source="YTHO2lLW2D-y7u-0HVRx-71" target="YTHO2lLW2D-y7u-0HVRx-113">
          <mxGeometry relative="1" as="geometry">
            <mxPoint x="130" y="250" as="targetPoint" />
            <Array as="points">
              <mxPoint x="290" y="260" />
              <mxPoint x="127" y="260" />
            </Array>
          </mxGeometry>
        </mxCell>
        <mxCell id="YTHO2lLW2D-y7u-0HVRx-71" value="Δ&lt;sub&gt;1&lt;/sub&gt; &lt;br&gt;= x&lt;sub&gt;act&amp;nbsp;&lt;/sub&gt;- x&lt;span style=&quot;font-size: 10px;&quot;&gt;&lt;sub&gt;prev&lt;/sub&gt;&lt;/span&gt;" style="rounded=0;whiteSpace=wrap;html=1;" vertex="1" parent="1">
          <mxGeometry x="260" y="148.5" width="60" height="53" as="geometry" />
        </mxCell>
        <mxCell id="YTHO2lLW2D-y7u-0HVRx-106" style="edgeStyle=orthogonalEdgeStyle;rounded=0;orthogonalLoop=1;jettySize=auto;html=1;exitX=0.5;exitY=1;exitDx=0;exitDy=0;entryX=0.665;entryY=-0.02;entryDx=0;entryDy=0;entryPerimeter=0;" edge="1" parent="1" source="YTHO2lLW2D-y7u-0HVRx-68" target="YTHO2lLW2D-y7u-0HVRx-113">
          <mxGeometry relative="1" as="geometry">
            <mxPoint x="146.53488372093022" y="220" as="targetPoint" />
          </mxGeometry>
        </mxCell>
        <mxCell id="YTHO2lLW2D-y7u-0HVRx-68" value="Δ&lt;span style=&quot;font-size: 10px;&quot;&gt;&lt;sub&gt;2&lt;/sub&gt;&lt;/span&gt;&lt;br&gt;= x&lt;sub&gt;next&amp;nbsp;&lt;/sub&gt;- x&lt;span style=&quot;font-size: 10px;&quot;&gt;act&lt;/span&gt;" style="rounded=0;whiteSpace=wrap;html=1;" vertex="1" parent="1">
          <mxGeometry x="120" y="150" width="53" height="50" as="geometry" />
        </mxCell>
        <mxCell id="YTHO2lLW2D-y7u-0HVRx-105" value="" style="endArrow=none;html=1;rounded=0;entryX=1;entryY=0.631;entryDx=0;entryDy=0;entryPerimeter=0;exitX=0;exitY=0.634;exitDx=0;exitDy=0;exitPerimeter=0;" edge="1" parent="1" source="YTHO2lLW2D-y7u-0HVRx-39" target="YTHO2lLW2D-y7u-0HVRx-39">
          <mxGeometry width="50" height="50" relative="1" as="geometry">
            <mxPoint x="130" y="190" as="sourcePoint" />
            <mxPoint x="180" y="140" as="targetPoint" />
          </mxGeometry>
        </mxCell>
        <mxCell id="YTHO2lLW2D-y7u-0HVRx-109" value="p == 1" style="edgeStyle=orthogonalEdgeStyle;rounded=0;orthogonalLoop=1;jettySize=auto;html=1;exitX=1;exitY=0.5;exitDx=0;exitDy=0;fillColor=#1ba1e2;strokeColor=#006EAF;" edge="1" parent="1" source="YTHO2lLW2D-y7u-0HVRx-108">
          <mxGeometry x="-0.7352" y="15" relative="1" as="geometry">
            <mxPoint x="270" y="290" as="targetPoint" />
            <mxPoint as="offset" />
          </mxGeometry>
        </mxCell>
        <mxCell id="YTHO2lLW2D-y7u-0HVRx-110" value="p==0" style="edgeStyle=orthogonalEdgeStyle;rounded=0;orthogonalLoop=1;jettySize=auto;html=1;exitX=0;exitY=0.5;exitDx=0;exitDy=0;entryX=0.791;entryY=0.01;entryDx=0;entryDy=0;entryPerimeter=0;fillColor=#1ba1e2;strokeColor=#006EAF;" edge="1" parent="1" source="YTHO2lLW2D-y7u-0HVRx-108" target="YTHO2lLW2D-y7u-0HVRx-113">
          <mxGeometry x="-0.2408" y="-15" relative="1" as="geometry">
            <mxPoint x="170" y="280" as="targetPoint" />
            <mxPoint as="offset" />
          </mxGeometry>
        </mxCell>
        <mxCell id="YTHO2lLW2D-y7u-0HVRx-108" value="" style="ellipse;whiteSpace=wrap;html=1;fillColor=#1ba1e2;fontColor=#ffffff;strokeColor=#006EAF;" vertex="1" parent="1">
          <mxGeometry x="220" y="220" width="30" height="30" as="geometry" />
        </mxCell>
        <mxCell id="YTHO2lLW2D-y7u-0HVRx-111" value="&lt;font style=&quot;font-size: 9px;&quot;&gt;x&lt;sub&gt;0&lt;/sub&gt; = val&lt;sub&gt;prev&lt;/sub&gt;&amp;nbsp;+ 0.5 * Δ&lt;sub&gt;1&lt;br style=&quot;font-size: 9px;&quot;&gt;&lt;/sub&gt;x&lt;sub&gt;1&lt;/sub&gt;&amp;nbsp;= val&lt;sub&gt;prev&lt;/sub&gt;&amp;nbsp;+ 0.25 * Δ&lt;sub&gt;1&amp;nbsp;&lt;/sub&gt;+ 0.5 * Δ&lt;sub&gt;1&lt;br style=&quot;font-size: 9px;&quot;&gt;&lt;/sub&gt;x&lt;sub&gt;2&amp;nbsp;&lt;/sub&gt;= val&lt;sub&gt;prev&lt;/sub&gt;&amp;nbsp;+ 0.125 * Δ&lt;sub&gt;1&amp;nbsp;&lt;/sub&gt;+ 0.25 * Δ&lt;sub&gt;1&amp;nbsp;&lt;/sub&gt;+ 0.5 * Δ&lt;sub&gt;1&lt;/sub&gt;&lt;br&gt;x&lt;sub&gt;3&lt;/sub&gt;=val&lt;sub&gt;act&lt;/sub&gt;&lt;/font&gt;" style="rounded=0;whiteSpace=wrap;html=1;" vertex="1" parent="1">
          <mxGeometry x="210" y="290" width="190" height="70" as="geometry" />
        </mxCell>
        <mxCell id="YTHO2lLW2D-y7u-0HVRx-112" value="" style="shape=flexArrow;endArrow=classic;html=1;rounded=0;exitX=0.544;exitY=1;exitDx=0;exitDy=0;exitPerimeter=0;" edge="1" parent="1">
          <mxGeometry width="50" height="50" relative="1" as="geometry">
            <mxPoint x="311.6" y="460" as="sourcePoint" />
            <mxPoint x="220" y="520" as="targetPoint" />
            <Array as="points">
              <mxPoint x="312" y="490" />
              <mxPoint x="220" y="490" />
            </Array>
          </mxGeometry>
        </mxCell>
        <mxCell id="YTHO2lLW2D-y7u-0HVRx-113" value="&lt;font style=&quot;font-size: 9px;&quot;&gt;x&lt;sub&gt;0&lt;/sub&gt; = val&lt;sub&gt;prev&lt;/sub&gt;&amp;nbsp;+ 0.5 * Δ&lt;sub&gt;1&lt;br style=&quot;font-size: 9px;&quot;&gt;&lt;/sub&gt;x&lt;sub&gt;1&lt;/sub&gt;&amp;nbsp;= val&lt;sub&gt;act&lt;/sub&gt;&amp;nbsp;+ 0.0625 * Δ&lt;/font&gt;&lt;font style=&quot;&quot;&gt;&lt;span style=&quot;font-size: 7.5px;&quot;&gt;&lt;sub&gt;2&lt;/sub&gt;&lt;/span&gt;&lt;sub style=&quot;font-size: 9px;&quot;&gt;&lt;br style=&quot;font-size: 9px;&quot;&gt;&lt;/sub&gt;&lt;font style=&quot;font-size: 9px;&quot;&gt;x&lt;/font&gt;&lt;font style=&quot;&quot;&gt;&lt;span style=&quot;font-size: 7.5px;&quot;&gt;&lt;sub&gt;2&lt;/sub&gt;&lt;/span&gt;&lt;font size=&quot;1&quot;&gt;&amp;nbsp;= val&lt;/font&gt;&lt;sub style=&quot;font-size: 9px;&quot;&gt;act&lt;/sub&gt;&lt;font size=&quot;1&quot;&gt;&amp;nbsp;+ 0.128* Δ&lt;/font&gt;&lt;/font&gt;&lt;sub&gt;2&lt;/sub&gt;&lt;sub style=&quot;font-size: 9px;&quot;&gt;&lt;br&gt;&lt;/sub&gt;&lt;font size=&quot;1&quot;&gt;x&lt;/font&gt;&lt;sub style=&quot;font-size: 9px;&quot;&gt;3&lt;/sub&gt;&lt;font size=&quot;1&quot;&gt;=val&lt;/font&gt;&lt;sub style=&quot;font-size: 9px;&quot;&gt;act&lt;/sub&gt;&lt;/font&gt;" style="rounded=0;whiteSpace=wrap;html=1;" vertex="1" parent="1">
          <mxGeometry x="20" y="290" width="190" height="70" as="geometry" />
        </mxCell>
        <mxCell id="YTHO2lLW2D-y7u-0HVRx-115" style="edgeStyle=orthogonalEdgeStyle;rounded=0;orthogonalLoop=1;jettySize=auto;html=1;exitX=0.25;exitY=1;exitDx=0;exitDy=0;entryX=0.886;entryY=-0.035;entryDx=0;entryDy=0;entryPerimeter=0;strokeWidth=3;" edge="1" parent="1" source="YTHO2lLW2D-y7u-0HVRx-39" target="YTHO2lLW2D-y7u-0HVRx-113">
          <mxGeometry relative="1" as="geometry">
            <Array as="points">
              <mxPoint x="205" y="270" />
              <mxPoint x="188" y="270" />
            </Array>
          </mxGeometry>
        </mxCell>
        <mxCell id="YTHO2lLW2D-y7u-0HVRx-116" value="&lt;font style=&quot;&quot;&gt;&lt;font style=&quot;font-size: 9px;&quot;&gt;x&lt;sub style=&quot;&quot;&gt;0&lt;/sub&gt; = val&lt;sub style=&quot;&quot;&gt;prev&lt;/sub&gt;&amp;nbsp;+ 0.5 * Δ&lt;sub style=&quot;&quot;&gt;1&lt;br&gt;&lt;/sub&gt;x&lt;/font&gt;&lt;font style=&quot;&quot;&gt;&lt;span style=&quot;font-size: 7.5px;&quot;&gt;&lt;sub&gt;1&lt;/sub&gt;&lt;/span&gt;&lt;font size=&quot;1&quot;&gt;&amp;nbsp;= val&lt;sub&gt;act&lt;/sub&gt;&lt;/font&gt;&lt;sub style=&quot;font-size: 9px;&quot;&gt;&lt;br&gt;&lt;/sub&gt;&lt;font size=&quot;1&quot;&gt;x&lt;/font&gt;&lt;/font&gt;&lt;font style=&quot;font-size: 7.5px;&quot;&gt;&lt;sub&gt;3&lt;/sub&gt;&lt;/font&gt;&lt;font style=&quot;&quot;&gt;&lt;font size=&quot;1&quot;&gt;&amp;nbsp;= val&lt;/font&gt;&lt;sub style=&quot;font-size: 9px;&quot;&gt;act&lt;/sub&gt;&lt;font size=&quot;1&quot;&gt;&amp;nbsp;+ 0.0625 * Δ&lt;/font&gt;&lt;/font&gt;&lt;font style=&quot;font-size: 9px;&quot;&gt;&lt;sub&gt;2&lt;/sub&gt;&lt;sub style=&quot;&quot;&gt;&lt;br style=&quot;font-size: 9px;&quot;&gt;&lt;/sub&gt;&lt;font style=&quot;font-size: 9px;&quot;&gt;x&lt;/font&gt;&lt;font style=&quot;font-size: 9px;&quot;&gt;&lt;sub&gt;3&lt;/sub&gt;&amp;nbsp;= val&lt;sub style=&quot;&quot;&gt;act&lt;/sub&gt;&amp;nbsp;+ 0.128* Δ&lt;/font&gt;&lt;sub&gt;2&lt;/sub&gt;&lt;/font&gt;&lt;/font&gt;" style="rounded=0;whiteSpace=wrap;html=1;" vertex="1" parent="1">
          <mxGeometry x="17" y="290" width="190" height="70" as="geometry" />
        </mxCell>
        <mxCell id="YTHO2lLW2D-y7u-0HVRx-119" value="" style="shape=flexArrow;endArrow=classic;html=1;rounded=0;exitX=0.5;exitY=1;exitDx=0;exitDy=0;" edge="1" parent="1">
          <mxGeometry width="50" height="50" relative="1" as="geometry">
            <mxPoint x="114.80000000000001" y="460" as="sourcePoint" />
            <mxPoint x="190" y="520" as="targetPoint" />
            <Array as="points">
              <mxPoint x="115" y="490" />
              <mxPoint x="190" y="490" />
            </Array>
          </mxGeometry>
        </mxCell>
        <mxCell id="YTHO2lLW2D-y7u-0HVRx-120" value="" style="rounded=0;whiteSpace=wrap;html=1;" vertex="1" parent="1">
          <mxGeometry x="23" y="360" width="177" height="110" as="geometry" />
        </mxCell>
        <mxCell id="YTHO2lLW2D-y7u-0HVRx-123" value="Wyjście" style="text;html=1;align=center;verticalAlign=middle;whiteSpace=wrap;rounded=0;" vertex="1" parent="1">
          <mxGeometry x="177" y="520" width="60" height="30" as="geometry" />
        </mxCell>
        <mxCell id="YTHO2lLW2D-y7u-0HVRx-124" value="" style="endArrow=classic;html=1;rounded=0;entryX=0.98;entryY=0.905;entryDx=0;entryDy=0;entryPerimeter=0;" edge="1" parent="1" target="YTHO2lLW2D-y7u-0HVRx-120">
          <mxGeometry width="50" height="50" relative="1" as="geometry">
            <mxPoint x="33.5" y="460" as="sourcePoint" />
            <mxPoint x="210" y="460" as="targetPoint" />
          </mxGeometry>
        </mxCell>
        <mxCell id="YTHO2lLW2D-y7u-0HVRx-125" value="" style="endArrow=classic;html=1;rounded=0;" edge="1" parent="1">
          <mxGeometry width="50" height="50" relative="1" as="geometry">
            <mxPoint x="43.5" y="470" as="sourcePoint" />
            <mxPoint x="43.5" y="370" as="targetPoint" />
          </mxGeometry>
        </mxCell>
        <mxCell id="YTHO2lLW2D-y7u-0HVRx-129" value="&lt;font color=&quot;#000000&quot;&gt;x&lt;span style=&quot;font-size: 10px;&quot;&gt;&lt;sub&gt;act&lt;/sub&gt;&lt;/span&gt;&lt;/font&gt;" style="ellipse;whiteSpace=wrap;html=1;fillColor=#1ba1e2;fontColor=#ffffff;strokeColor=#006EAF;" vertex="1" parent="1">
          <mxGeometry x="79.5" y="380" width="10" height="10" as="geometry" />
        </mxCell>
        <mxCell id="YTHO2lLW2D-y7u-0HVRx-132" value="" style="ellipse;whiteSpace=wrap;html=1;fillColor=#008a00;fontColor=#ffffff;strokeColor=#005700;" vertex="1" parent="1">
          <mxGeometry x="42" y="420" width="10" height="10" as="geometry" />
        </mxCell>
        <mxCell id="YTHO2lLW2D-y7u-0HVRx-133" value="" style="ellipse;whiteSpace=wrap;html=1;fillColor=#008a00;fontColor=#ffffff;strokeColor=#005700;" vertex="1" parent="1">
          <mxGeometry x="120" y="390" width="10" height="10" as="geometry" />
        </mxCell>
        <mxCell id="YTHO2lLW2D-y7u-0HVRx-134" value="" style="ellipse;whiteSpace=wrap;html=1;fillColor=#008a00;fontColor=#ffffff;strokeColor=#005700;direction=south;" vertex="1" parent="1">
          <mxGeometry x="160" y="410" width="10" height="10" as="geometry" />
        </mxCell>
        <mxCell id="YTHO2lLW2D-y7u-0HVRx-135" value="" style="rounded=0;whiteSpace=wrap;html=1;" vertex="1" parent="1">
          <mxGeometry x="220" y="360" width="177" height="110" as="geometry" />
        </mxCell>
        <mxCell id="YTHO2lLW2D-y7u-0HVRx-136" value="" style="endArrow=classic;html=1;rounded=0;entryX=0.98;entryY=0.905;entryDx=0;entryDy=0;entryPerimeter=0;" edge="1" parent="1" target="YTHO2lLW2D-y7u-0HVRx-135">
          <mxGeometry width="50" height="50" relative="1" as="geometry">
            <mxPoint x="223.5" y="460" as="sourcePoint" />
            <mxPoint x="400" y="460" as="targetPoint" />
          </mxGeometry>
        </mxCell>
        <mxCell id="YTHO2lLW2D-y7u-0HVRx-137" value="" style="endArrow=classic;html=1;rounded=0;" edge="1" parent="1">
          <mxGeometry width="50" height="50" relative="1" as="geometry">
            <mxPoint x="235" y="460" as="sourcePoint" />
            <mxPoint x="233.5" y="370" as="targetPoint" />
          </mxGeometry>
        </mxCell>
        <mxCell id="YTHO2lLW2D-y7u-0HVRx-139" value="&lt;font color=&quot;#000000&quot;&gt;x&lt;span style=&quot;font-size: 10px;&quot;&gt;&lt;sub&gt;act&lt;/sub&gt;&lt;/span&gt;&lt;/font&gt;" style="ellipse;whiteSpace=wrap;html=1;fillColor=#1ba1e2;fontColor=#ffffff;strokeColor=#006EAF;" vertex="1" parent="1">
          <mxGeometry x="354" y="380" width="10" height="10" as="geometry" />
        </mxCell>
        <mxCell id="YTHO2lLW2D-y7u-0HVRx-143" value="" style="ellipse;whiteSpace=wrap;html=1;fillColor=#008a00;fontColor=#ffffff;strokeColor=#005700;" vertex="1" parent="1">
          <mxGeometry x="270" y="400" width="10" height="10" as="geometry" />
        </mxCell>
        <mxCell id="YTHO2lLW2D-y7u-0HVRx-142" value="" style="ellipse;whiteSpace=wrap;html=1;fillColor=#008a00;fontColor=#ffffff;strokeColor=#005700;" vertex="1" parent="1">
          <mxGeometry x="230" y="420" width="10" height="10" as="geometry" />
        </mxCell>
        <mxCell id="YTHO2lLW2D-y7u-0HVRx-147" value="" style="ellipse;whiteSpace=wrap;html=1;fillColor=#008a00;fontColor=#ffffff;strokeColor=#005700;" vertex="1" parent="1">
          <mxGeometry x="310" y="390" width="10" height="10" as="geometry" />
        </mxCell>
        <mxCell id="YTHO2lLW2D-y7u-0HVRx-150" value="&lt;font color=&quot;#000000&quot;&gt;x&lt;sub&gt;next&lt;/sub&gt;&lt;/font&gt;" style="rounded=0;whiteSpace=wrap;html=1;fillColor=#1ba1e2;fontColor=#ffffff;strokeColor=#006EAF;" vertex="1" parent="1">
          <mxGeometry x="173" y="440" width="27" height="10" as="geometry" />
        </mxCell>
        <mxCell id="YTHO2lLW2D-y7u-0HVRx-151" value="&lt;font color=&quot;#000000&quot;&gt;x&lt;span style=&quot;font-size: 10px;&quot;&gt;&lt;sub&gt;prev&lt;/sub&gt;&lt;/span&gt;&lt;/font&gt;" style="rounded=0;whiteSpace=wrap;html=1;fillColor=#1ba1e2;fontColor=#ffffff;strokeColor=#006EAF;" vertex="1" parent="1">
          <mxGeometry x="25" y="450" width="27" height="10" as="geometry" />
        </mxCell>
        <mxCell id="YTHO2lLW2D-y7u-0HVRx-152" value="&lt;font color=&quot;#000000&quot;&gt;x&lt;span style=&quot;font-size: 10px;&quot;&gt;&lt;sub&gt;prev&lt;/sub&gt;&lt;/span&gt;&lt;/font&gt;" style="rounded=0;whiteSpace=wrap;html=1;fillColor=#1ba1e2;fontColor=#ffffff;strokeColor=#006EAF;" vertex="1" parent="1">
          <mxGeometry x="220" y="440" width="27" height="10" as="geometry" />
        </mxCell>
      </root>
    </mxGraphModel>
  </diagram>
</mxfile>
